<svg width="1024" height="1024" viewBox="0 0 1024 1024" fill="none" xmlns="http://www.w3.org/2000/svg">
  <defs>
    <linearGradient id="bg" x1="512" y1="172" x2="512" y2="852" gradientUnits="userSpaceOnUse">
      <stop stop-color="#5C6AF4"/>
      <stop offset="1" stop-color="#8339F1"/>
    </linearGradient>
    <filter id="softShadow" x="110" y="120" width="804" height="804" filterUnits="userSpaceOnUse" color-interpolation-filters="sRGB">
      <feDropShadow dx="0" dy="18" stdDeviation="26" flood-color="#5B21B6" flood-opacity="0.16"/>
    </filter>
  </defs>

  <g filter="url(#softShadow)">
    <rect x="140" y="140" width="744" height="744" rx="118" fill="url(#bg)"/>
  </g>

  <path
    d="M515 298C628.74 298 721 390.26 721 504C721 548.285 707.019 589.298 683.227 622.857"
    stroke="white"
    stroke-width="37"
    stroke-linecap="round"
  />

  <path
    d="M608.227 433.663C582.244 407.68 549.609 392.5 512.5 392.5C438.228 392.5 378 452.728 378 527C378 601.272 438.228 661.5 512.5 661.5C555.298 661.5 593.427 641.506 618.094 610.34"
    stroke="white"
    stroke-opacity="0.58"
    stroke-width="37"
    stroke-linecap="round"
  />

  <path
    d="M616.5 528H467.5"
    stroke="white"
    stroke-width="37"
    stroke-linecap="round"
  />

  <path
    d="M523 472L459 528L523 584"
    stroke="white"
    stroke-width="37"
    stroke-linecap="round"
    stroke-linejoin="round"
  />

  <g transform="translate(0 4) rotate(-6 646 678)">
    <path
      d="M654.533 585.382C669.402 574.336 690.332 577.421 701.388 592.289L745.173 651.153C756.229 666.021 753.144 686.951 738.275 698.007L664.649 752.77C649.781 763.826 628.851 760.741 617.795 745.873L574.01 687.009C562.954 672.14 566.039 651.211 580.907 640.155L654.533 585.382Z"
      fill="white"
    />
    <rect
      x="617.706"
      y="642.53"
      width="82"
      height="118"
      rx="16"
      transform="rotate(-31 617.706 642.53)"
      fill="url(#bg)"
      fill-opacity="0.22"
    />
    <circle cx="636.5" cy="714.5" r="10.5" fill="url(#bg)" fill-opacity="0.48"/>
  </g>
</svg>
